<?xml version="1.0" standalone="no"?><!DOCTYPE svg PUBLIC "-//W3C//DTD SVG 1.1//EN" "http://www.w3.org/Graphics/SVG/1.1/DTD/svg11.dtd"><svg t="1722474765771" class="icon" viewBox="0 0 1024 1024" version="1.1" xmlns="http://www.w3.org/2000/svg" p-id="1098" xmlns:xlink="http://www.w3.org/1999/xlink" width="200" height="200"><path d="M855.6544 894.4128H242.8416a62.4128 62.4128 0 0 1-62.4128-62.4128V454.7072a62.3616 62.3616 0 0 1 11.8272-36.5056l95.744-132.352h523.3664L906.24 418.2528a62.5152 62.5152 0 0 1 11.6736 36.352v377.3952a62.4128 62.4128 0 0 1-62.2592 62.4128z" fill="#FFC31A" p-id="1099"></path><path d="M855.6544 894.4128a62.4128 62.4128 0 0 0 62.4128-62.4128V454.6048a62.5152 62.5152 0 0 0-11.6736-36.352l-95.0272-132.4032h-19.8656l-8.6016 10.752 58.0096 153.2928v444.5184z" fill="#F48806" p-id="1100"></path><path d="M288 285.8496V235.52a48.5376 48.5376 0 0 1 48.5888-48.5376H762.88a48.5888 48.5888 0 0 1 48.5888 48.7936l-0.256 49.92" fill="#FFE8D2" p-id="1101"></path><path d="M811.3664 285.8496l0.256-49.92a48.5888 48.5888 0 0 0-48.7424-48.7936h-16.7424v98.7136z" fill="#E8AD80" p-id="1102"></path><path d="M476.8256 667.5456c0-41.4208-46.08-85.4016-75.008-100.4544-30.72 19.456-75.008 59.0336-75.008 100.4544a75.008 75.008 0 1 0 150.016 0z" fill="#FFE8D2" p-id="1103"></path><path d="M476.8256 667.5456c0-41.4208-46.08-85.4016-75.008-100.4544h-0.3584L399.36 576.512s83.4048 133.9392-17.664 147.2512a72.2944 72.2944 0 0 0 7.936 17.664 75.8272 75.8272 0 0 0 12.3904 1.1264 75.008 75.008 0 0 0 74.8032-75.008z" fill="#E8AD80" p-id="1104"></path><path d="M566.4768 344.7808s-66.56 30.72-56.32 74.24c5.9904 25.6 11.7248 41.8816-10.24 69.5296-37.2224 46.5408 36.9152 104.8576 102.4 97.9968 57.4976-5.9904 86.4768-21.3504 85.4016-72.8064-1.024-47.6672-77.7216-67.328-74.4448-95.7952 3.1232-27.392-23.7568-61.1328-46.7968-73.1648z" fill="#FFE8D2" p-id="1105"></path><path d="M613.2224 417.9456c3.072-26.6752-22.272-59.1872-44.8-72.0384l-5.12 6.912c1.792 0.7168 25.6 44.1344 19.712 67.1232s-2.56 60.9792 30.72 75.9296 56.32 51.2 27.7504 82.4832l-1.3824 1.5872c32.512-9.216 48.7424-27.4944 47.9232-66.2016-1.3824-47.8208-78.08-67.328-74.8032-95.7952z" fill="#E8AD80" p-id="1106"></path><path d="M581.9904 191.5392h11.0592a20.48 20.48 0 1 0 0-40.96h-11.0592a20.48 20.48 0 0 0 0 40.96zM440.32 401.8688H216.1152a20.48 20.48 0 1 0 0 40.96H440.32a20.48 20.48 0 0 0 0-40.96zM411.2384 548.9152a20.48 20.48 0 0 0-20.48 0.8192c-14.1312 8.9088-84.5824 56.32-84.5824 117.76a95.488 95.488 0 1 0 190.976 0c0.1536-50.432-51.2-100.5568-85.9136-118.5792zM401.8176 721.92a54.6304 54.6304 0 0 1-54.528-54.528c0-25.6 26.9824-55.9104 55.1424-76.1856 24.7808 16.8448 53.9136 49.92 53.9136 76.1856A54.6304 54.6304 0 0 1 401.8176 721.92z" fill="#293E40" p-id="1107"></path><path d="M869.888 390.2464l-91.136-127.0272v-43.264a69.0688 69.0688 0 0 0-69.0688-69.376h-46.592a20.48 20.48 0 0 0 0 40.96h46.592a28.16 28.16 0 0 1 28.1088 28.2112v29.5424H255.3856V219.648a28.1088 28.1088 0 0 1 28.0576-28.1088h236.6976a20.48 20.48 0 1 0 0-40.96H283.4432A69.12 69.12 0 0 0 214.4256 219.648v43.4688l-92.16 127.0272a81.92 81.92 0 0 0-15.7184 48.5376v98.4064a20.48 20.48 0 0 0 40.96 0V438.6816a41.728 41.728 0 0 1 7.936-24.5248l89.6512-123.904H721.92l-71.68 110.8992a69.8368 69.8368 0 0 0-9.8816 25.1904 33.3824 33.3824 0 0 1-6.9632-7.3216c2.6112-27.7504-14.5408-56.32-34.304-75.008-2.56-12.6976-16.2304-22.4256-32.7168-22.4256a33.7408 33.7408 0 0 0-30.976 17.2544c-26.7776 18.176-53.9648 48.2304-45.3632 84.8896l1.0752 4.5056c5.12 21.9136 7.0656 29.3376-7.5264 47.5136-18.5344 23.1936-20.48 53.9136-5.12 81.92 20.48 37.888 64.1536 62.5152 109.1584 62.5152 3.6864 0 7.424 0 11.1104-0.4608 96.8704-8.9088 110.08-70.6048 109.312-106.5984-0.512-23.1936-13.0048-40.96-27.6992-54.8352v-19.6096a28.3648 28.3648 0 0 1 4.5568-15.36L759.8592 307.2l76.8 107.008a41.6256 41.6256 0 0 1 7.8336 24.3712v377.3952a41.9328 41.9328 0 0 1-41.9328 41.9328H680.448v-187.5968a20.48 20.48 0 0 0-40.96 0v187.5456H189.696a41.9328 41.9328 0 0 1-41.9328-41.9328v-187.5968a20.48 20.48 0 0 0-40.96 0v187.5968a82.944 82.944 0 0 0 82.8928 82.8928h612.8128a82.944 82.944 0 0 0 82.8928-82.8928V438.528a82.2272 82.2272 0 0 0-15.5136-48.2816z m-274.7904 188.8768c-36.1984 3.328-68.5056-18.4832-80.4864-40.6528-5.12-9.6768-9.216-24.0128 1.28-37.12 27.0848-33.8432 21.1456-58.6752 15.36-82.688l-1.024-4.3008c-3.4816-14.848 12.544-30.1056 26.88-40.2432a41.8816 41.8816 0 0 0 9.5744 1.1264 42.752 42.752 0 0 0 5.7856-0.4096c11.9808 12.032 21.76 28.8256 20.48 40.96-2.816 24.4224 17.8176 39.936 37.7856 54.9888 17.7664 13.3632 36.1472 27.2384 36.5056 43.6224 0.512 26.88-7.1168 58.7264-72.1408 64.7168z" fill="#293E40" p-id="1108"></path><path d="M296.96 364.544h-6.9632a20.48 20.48 0 0 1 0-40.96H296.96a20.48 20.48 0 0 1 0 40.96zM419.84 364.544H350.7712a20.48 20.48 0 0 1 0-40.96H419.84a20.48 20.48 0 0 1 0 40.96zM223.6928 699.5456a20.48 20.48 0 0 1-20.48-20.48v-10.24a20.48 20.48 0 0 1 40.96 0v10.24a20.48 20.48 0 0 1-20.48 20.48zM223.6928 640.768a20.48 20.48 0 0 1-20.48-20.48v-103.6288a20.48 20.48 0 0 1 40.96 0v103.6288a20.48 20.48 0 0 1-20.48 20.48z" fill="#FFFFFF" p-id="1109"></path></svg>